<?xml version="1.0" encoding="UTF-8"?>
<svg xmlns="http://www.w3.org/2000/svg" xmlns:xlink="http://www.w3.org/1999/xlink" viewBox="0 0 480 480" width="480px" height="480px">
<g id="surface64592055">
<path style=" stroke:none;fill-rule:nonzero;fill:rgb(92.54902%,94.117647%,94.509804%);fill-opacity:1;" d="M 240 480 C 107.453125 480 0 372.546875 0 240 C 0 107.453125 107.453125 0 240 0 C 372.546875 0 480 107.453125 480 240 C 480 372.546875 372.546875 480 240 480 Z M 240 480 "/>
<path style=" stroke:none;fill-rule:nonzero;fill:rgb(0.784314%,46.666667%,74.117649%);fill-opacity:1;" d="M 254.792969 240.691406 C 255.605469 241.738281 255.945312 243.242188 255.714844 244.636719 L 253.519531 254.257812 C 253.285156 255.761719 252.242188 256.925781 250.976562 257.617188 L 242.074219 261.789062 C 240.800781 262.484375 239.183594 262.484375 237.910156 261.789062 L 229.003906 257.617188 C 227.730469 256.925781 226.695312 255.761719 226.464844 254.257812 L 224.265625 244.636719 C 224.035156 243.242188 224.386719 241.738281 225.191406 240.691406 L 231.433594 232.929688 C 232.238281 231.765625 233.632812 231.074219 235.128906 231.074219 L 244.84375 231.074219 C 246.351562 231.074219 247.734375 231.765625 248.546875 232.929688 Z M 254.792969 240.691406 "/>
<path style=" stroke:none;fill-rule:nonzero;fill:rgb(0.784314%,46.666667%,74.117649%);fill-opacity:1;" d="M 250.308594 169.988281 L 250.691406 172.972656 C 251.757812 181.234375 252.523438 189.578125 253.285156 197.839844 C 253.589844 201.128906 253.898438 204.34375 254.125 207.632812 C 254.273438 210.160156 257.101562 211.457031 259.164062 210.007812 C 261.761719 208.097656 264.4375 206.183594 267.183594 204.34375 C 274.058594 199.679688 280.851562 195.011719 287.875 190.496094 L 290.472656 188.886719 C 279.554688 178.9375 265.65625 172.128906 250.308594 169.988281 Z M 250.308594 169.988281 L 250.691406 172.972656 C 251.757812 181.234375 252.523438 189.578125 253.285156 197.839844 C 253.589844 201.128906 253.898438 204.34375 254.125 207.632812 C 254.273438 210.160156 257.101562 211.457031 259.164062 210.007812 C 261.761719 208.097656 264.4375 206.183594 267.183594 204.34375 C 274.058594 199.679688 280.851562 195.011719 287.875 190.496094 L 290.472656 188.886719 C 279.554688 178.9375 265.65625 172.128906 250.308594 169.988281 Z M 250.308594 169.988281 L 250.691406 172.972656 C 251.757812 181.234375 252.523438 189.578125 253.285156 197.839844 C 253.589844 201.128906 253.898438 204.34375 254.125 207.632812 C 254.273438 210.160156 257.101562 211.457031 259.164062 210.007812 C 261.761719 208.097656 264.4375 206.183594 267.183594 204.34375 C 274.058594 199.679688 280.851562 195.011719 287.875 190.496094 L 290.472656 188.886719 C 279.554688 178.9375 265.65625 172.128906 250.308594 169.988281 Z M 250.308594 169.988281 L 250.691406 172.972656 C 251.757812 181.234375 252.523438 189.578125 253.285156 197.839844 C 253.589844 201.128906 253.898438 204.34375 254.125 207.632812 C 254.273438 210.160156 257.101562 211.457031 259.164062 210.007812 C 261.761719 208.097656 264.4375 206.183594 267.183594 204.34375 C 274.058594 199.679688 280.851562 195.011719 287.875 190.496094 L 290.472656 188.886719 C 279.554688 178.9375 265.65625 172.128906 250.308594 169.988281 Z M 250.308594 169.988281 L 250.691406 172.972656 C 251.757812 181.234375 252.523438 189.578125 253.285156 197.839844 C 253.589844 201.128906 253.898438 204.34375 254.125 207.632812 C 254.273438 210.160156 257.101562 211.457031 259.164062 210.007812 C 261.761719 208.097656 264.4375 206.183594 267.183594 204.34375 C 274.058594 199.679688 280.851562 195.011719 287.875 190.496094 L 290.472656 188.886719 C 279.554688 178.9375 265.65625 172.128906 250.308594 169.988281 Z M 304.519531 205.867188 L 302.457031 208.089844 C 296.730469 214.210938 290.855469 220.097656 284.96875 225.992188 C 281.226562 229.8125 277.179688 233.484375 273.285156 237.238281 C 278.476562 238.535156 283.671875 239.914062 288.863281 241.441406 C 296.882812 243.734375 304.824219 245.957031 312.761719 248.554688 L 315.589844 249.46875 C 315.671875 248.242188 315.671875 246.945312 315.671875 245.648438 C 315.671875 231.039062 311.625 217.421875 304.519531 205.867188 Z M 304.519531 205.867188 L 302.457031 208.089844 C 296.730469 214.210938 290.855469 220.097656 284.96875 225.992188 C 281.226562 229.8125 277.179688 233.484375 273.285156 237.238281 C 278.476562 238.535156 283.671875 239.914062 288.863281 241.441406 C 296.882812 243.734375 304.824219 245.957031 312.761719 248.554688 L 315.589844 249.46875 C 315.671875 248.242188 315.671875 246.945312 315.671875 245.648438 C 315.671875 231.039062 311.625 217.421875 304.519531 205.867188 Z M 250.308594 169.988281 L 250.691406 172.972656 C 251.757812 181.234375 252.523438 189.578125 253.285156 197.839844 C 253.589844 201.128906 253.898438 204.34375 254.125 207.632812 C 254.273438 210.160156 257.101562 211.457031 259.164062 210.007812 C 261.761719 208.097656 264.4375 206.183594 267.183594 204.34375 C 274.058594 199.679688 280.851562 195.011719 287.875 190.496094 L 290.472656 188.886719 C 279.554688 178.9375 265.65625 172.128906 250.308594 169.988281 Z M 250.308594 169.988281 L 250.691406 172.972656 C 251.757812 181.234375 252.523438 189.578125 253.285156 197.839844 C 253.589844 201.128906 253.898438 204.34375 254.125 207.632812 C 254.273438 210.160156 257.101562 211.457031 259.164062 210.007812 C 261.761719 208.097656 264.4375 206.183594 267.183594 204.34375 C 274.058594 199.679688 280.851562 195.011719 287.875 190.496094 L 290.472656 188.886719 C 279.554688 178.9375 265.65625 172.128906 250.308594 169.988281 Z M 308.566406 271.050781 C 300.242188 270.519531 291.992188 269.753906 283.671875 268.988281 C 280.078125 268.6875 276.566406 268.304688 272.980469 267.914062 C 270.6875 267.613281 268.855469 269.90625 269.703125 272.121094 C 271 275.558594 272.21875 279.007812 273.445312 282.527344 C 276.121094 290.332031 278.867188 298.210938 281.382812 306.167969 L 282.222656 308.921875 C 295.503906 299.820312 305.820312 286.664062 311.234375 271.203125 Z M 304.519531 205.867188 L 302.457031 208.089844 C 296.730469 214.210938 290.855469 220.097656 284.96875 225.992188 C 281.226562 229.8125 277.179688 233.484375 273.285156 237.238281 C 278.476562 238.535156 283.671875 239.914062 288.863281 241.441406 C 296.882812 243.734375 304.824219 245.957031 312.761719 248.554688 L 315.589844 249.46875 C 315.671875 248.242188 315.671875 246.945312 315.671875 245.648438 C 315.671875 231.039062 311.625 217.421875 304.519531 205.867188 Z M 304.519531 205.867188 L 302.457031 208.089844 C 296.730469 214.210938 290.855469 220.097656 284.96875 225.992188 C 281.226562 229.8125 277.179688 233.484375 273.285156 237.238281 C 278.476562 238.535156 283.671875 239.914062 288.863281 241.441406 C 296.882812 243.734375 304.824219 245.957031 312.761719 248.554688 L 315.589844 249.46875 C 315.671875 248.242188 315.671875 246.945312 315.671875 245.648438 C 315.671875 231.039062 311.625 217.421875 304.519531 205.867188 Z M 308.566406 271.050781 C 300.242188 270.519531 291.992188 269.753906 283.671875 268.988281 C 280.078125 268.6875 276.566406 268.304688 272.980469 267.914062 C 270.6875 267.613281 268.855469 269.90625 269.703125 272.121094 C 271 275.558594 272.21875 279.007812 273.445312 282.527344 C 276.121094 290.332031 278.867188 298.210938 281.382812 306.167969 L 282.222656 308.921875 C 295.503906 299.820312 305.820312 286.664062 311.234375 271.203125 Z M 250.308594 169.988281 L 250.691406 172.972656 C 251.757812 181.234375 252.523438 189.578125 253.285156 197.839844 C 253.589844 201.128906 253.898438 204.34375 254.125 207.632812 C 254.273438 210.160156 257.101562 211.457031 259.164062 210.007812 C 261.761719 208.097656 264.4375 206.183594 267.183594 204.34375 C 274.058594 199.679688 280.851562 195.011719 287.875 190.496094 L 290.472656 188.886719 C 279.554688 178.9375 265.65625 172.128906 250.308594 169.988281 Z M 250.308594 169.988281 L 250.691406 172.972656 C 251.757812 181.234375 252.523438 189.578125 253.285156 197.839844 C 253.589844 201.128906 253.898438 204.34375 254.125 207.632812 C 254.273438 210.160156 257.101562 211.457031 259.164062 210.007812 C 261.761719 208.097656 264.4375 206.183594 267.183594 204.34375 C 274.058594 199.679688 280.851562 195.011719 287.875 190.496094 L 290.472656 188.886719 C 279.554688 178.9375 265.65625 172.128906 250.308594 169.988281 Z M 308.566406 271.050781 C 300.242188 270.519531 291.992188 269.753906 283.671875 268.988281 C 280.078125 268.6875 276.566406 268.304688 272.980469 267.914062 C 270.6875 267.613281 268.855469 269.90625 269.703125 272.121094 C 271 275.558594 272.21875 279.007812 273.445312 282.527344 C 276.121094 290.332031 278.867188 298.210938 281.382812 306.167969 L 282.222656 308.921875 C 295.503906 299.820312 305.820312 286.664062 311.234375 271.203125 Z M 304.519531 205.867188 L 302.457031 208.089844 C 296.730469 214.210938 290.855469 220.097656 284.96875 225.992188 C 281.226562 229.8125 277.179688 233.484375 273.285156 237.238281 C 278.476562 238.535156 283.671875 239.914062 288.863281 241.441406 C 296.882812 243.734375 304.824219 245.957031 312.761719 248.554688 L 315.589844 249.46875 C 315.671875 248.242188 315.671875 246.945312 315.671875 245.648438 C 315.671875 231.039062 311.625 217.421875 304.519531 205.867188 Z M 304.519531 205.867188 L 302.457031 208.089844 C 296.730469 214.210938 290.855469 220.097656 284.96875 225.992188 C 281.226562 229.8125 277.179688 233.484375 273.285156 237.238281 C 278.476562 238.535156 283.671875 239.914062 288.863281 241.441406 C 296.882812 243.734375 304.824219 245.957031 312.761719 248.554688 L 315.589844 249.46875 C 315.671875 248.242188 315.671875 246.945312 315.671875 245.648438 C 315.671875 231.039062 311.625 217.421875 304.519531 205.867188 Z M 308.566406 271.050781 C 300.242188 270.519531 291.992188 269.753906 283.671875 268.988281 C 280.078125 268.6875 276.566406 268.304688 272.980469 267.914062 C 270.6875 267.613281 268.855469 269.90625 269.703125 272.121094 C 271 275.558594 272.21875 279.007812 273.445312 282.527344 C 276.121094 290.332031 278.867188 298.210938 281.382812 306.167969 L 282.222656 308.921875 C 295.503906 299.820312 305.820312 286.664062 311.234375 271.203125 Z M 250.308594 169.988281 L 250.691406 172.972656 C 251.757812 181.234375 252.523438 189.578125 253.285156 197.839844 C 253.589844 201.128906 253.898438 204.34375 254.125 207.632812 C 254.273438 210.160156 257.101562 211.457031 259.164062 210.007812 C 261.761719 208.097656 264.4375 206.183594 267.183594 204.34375 C 274.058594 199.679688 280.851562 195.011719 287.875 190.496094 L 290.472656 188.886719 C 279.554688 178.9375 265.65625 172.128906 250.308594 169.988281 Z M 260.613281 315.652344 C 256.1875 308.613281 252.0625 301.347656 247.933594 294.15625 C 246.101562 291.019531 244.34375 287.882812 242.664062 284.671875 C 241.445312 282.449219 238.304688 282.449219 237.089844 284.671875 C 235.328125 287.960938 233.496094 291.179688 231.59375 294.308594 C 227.394531 301.5 223.191406 308.691406 218.761719 315.730469 L 216.851562 318.789062 C 223.957031 321.011719 231.511719 322.160156 239.300781 322.160156 C 247.320312 322.160156 255.109375 320.933594 262.367188 318.558594 Z M 250.308594 169.988281 L 250.691406 172.972656 C 251.757812 181.234375 252.523438 189.578125 253.285156 197.839844 C 253.589844 201.128906 253.898438 204.34375 254.125 207.632812 C 254.273438 210.160156 257.101562 211.457031 259.164062 210.007812 C 261.761719 208.097656 264.4375 206.183594 267.183594 204.34375 C 274.058594 199.679688 280.851562 195.011719 287.875 190.496094 L 290.472656 188.886719 C 279.554688 178.9375 265.65625 172.128906 250.308594 169.988281 Z M 308.566406 271.050781 C 300.242188 270.519531 291.992188 269.753906 283.671875 268.988281 C 280.078125 268.6875 276.566406 268.304688 272.980469 267.914062 C 270.6875 267.613281 268.855469 269.90625 269.703125 272.121094 C 271 275.558594 272.21875 279.007812 273.445312 282.527344 C 276.121094 290.332031 278.867188 298.210938 281.382812 306.167969 L 282.222656 308.921875 C 295.503906 299.820312 305.820312 286.664062 311.234375 271.203125 Z M 304.519531 205.867188 L 302.457031 208.089844 C 296.730469 214.210938 290.855469 220.097656 284.96875 225.992188 C 281.226562 229.8125 277.179688 233.484375 273.285156 237.238281 C 278.476562 238.535156 283.671875 239.914062 288.863281 241.441406 C 296.882812 243.734375 304.824219 245.957031 312.761719 248.554688 L 315.589844 249.46875 C 315.671875 248.242188 315.671875 246.945312 315.671875 245.648438 C 315.671875 231.039062 311.625 217.421875 304.519531 205.867188 Z M 304.519531 205.867188 L 302.457031 208.089844 C 296.730469 214.210938 290.855469 220.097656 284.96875 225.992188 C 281.226562 229.8125 277.179688 233.484375 273.285156 237.238281 C 278.476562 238.535156 283.671875 239.914062 288.863281 241.441406 C 296.882812 243.734375 304.824219 245.957031 312.761719 248.554688 L 315.589844 249.46875 C 315.671875 248.242188 315.671875 246.945312 315.671875 245.648438 C 315.671875 231.039062 311.625 217.421875 304.519531 205.867188 Z M 308.566406 271.050781 C 300.242188 270.519531 291.992188 269.753906 283.671875 268.988281 C 280.078125 268.6875 276.566406 268.304688 272.980469 267.914062 C 270.6875 267.613281 268.855469 269.90625 269.703125 272.121094 C 271 275.558594 272.21875 279.007812 273.445312 282.527344 C 276.121094 290.332031 278.867188 298.210938 281.382812 306.167969 L 282.222656 308.921875 C 295.503906 299.820312 305.820312 286.664062 311.234375 271.203125 Z M 250.308594 169.988281 L 250.691406 172.972656 C 251.757812 181.234375 252.523438 189.578125 253.285156 197.839844 C 253.589844 201.128906 253.898438 204.34375 254.125 207.632812 C 254.273438 210.160156 257.101562 211.457031 259.164062 210.007812 C 261.761719 208.097656 264.4375 206.183594 267.183594 204.34375 C 274.058594 199.679688 280.851562 195.011719 287.875 190.496094 L 290.472656 188.886719 C 279.554688 178.9375 265.65625 172.128906 250.308594 169.988281 Z M 260.613281 315.652344 C 256.1875 308.613281 252.0625 301.347656 247.933594 294.15625 C 246.101562 291.019531 244.34375 287.882812 242.664062 284.671875 C 241.445312 282.449219 238.304688 282.449219 237.089844 284.671875 C 235.328125 287.960938 233.496094 291.179688 231.59375 294.308594 C 227.394531 301.5 223.191406 308.691406 218.761719 315.730469 L 216.851562 318.789062 C 223.957031 321.011719 231.511719 322.160156 239.300781 322.160156 C 247.320312 322.160156 255.109375 320.933594 262.367188 318.558594 Z M 207.007812 266.847656 C 203.414062 267.308594 199.902344 267.84375 196.320312 268.226562 C 187.996094 269.222656 179.824219 270.214844 171.503906 270.980469 L 167.378906 271.363281 C 172.953125 286.972656 183.488281 300.28125 197.003906 309.3125 L 198.070312 306.09375 C 200.667969 298.140625 203.414062 290.332031 206.242188 282.457031 C 207.542969 278.632812 208.917969 274.882812 210.367188 271.0625 C 211.285156 268.832031 209.371094 266.464844 207.007812 266.847656 Z M 260.613281 315.652344 C 256.1875 308.613281 252.0625 301.347656 247.933594 294.15625 C 246.101562 291.019531 244.34375 287.882812 242.664062 284.671875 C 241.445312 282.449219 238.304688 282.449219 237.089844 284.671875 C 235.328125 287.960938 233.496094 291.179688 231.59375 294.308594 C 227.394531 301.5 223.191406 308.691406 218.761719 315.730469 L 216.851562 318.789062 C 223.957031 321.011719 231.511719 322.160156 239.300781 322.160156 C 247.320312 322.160156 255.109375 320.933594 262.367188 318.558594 Z M 250.308594 169.988281 L 250.691406 172.972656 C 251.757812 181.234375 252.523438 189.578125 253.285156 197.839844 C 253.589844 201.128906 253.898438 204.34375 254.125 207.632812 C 254.273438 210.160156 257.101562 211.457031 259.164062 210.007812 C 261.761719 208.097656 264.4375 206.183594 267.183594 204.34375 C 274.058594 199.679688 280.851562 195.011719 287.875 190.496094 L 290.472656 188.886719 C 279.554688 178.9375 265.65625 172.128906 250.308594 169.988281 Z M 308.566406 271.050781 C 300.242188 270.519531 291.992188 269.753906 283.671875 268.988281 C 280.078125 268.6875 276.566406 268.304688 272.980469 267.914062 C 270.6875 267.613281 268.855469 269.90625 269.703125 272.121094 C 271 275.558594 272.21875 279.007812 273.445312 282.527344 C 276.121094 290.332031 278.867188 298.210938 281.382812 306.167969 L 282.222656 308.921875 C 295.503906 299.820312 305.820312 286.664062 311.234375 271.203125 Z M 304.519531 205.867188 L 302.457031 208.089844 C 296.730469 214.210938 290.855469 220.097656 284.96875 225.992188 C 281.226562 229.8125 277.179688 233.484375 273.285156 237.238281 C 278.476562 238.535156 283.671875 239.914062 288.863281 241.441406 C 296.882812 243.734375 304.824219 245.957031 312.761719 248.554688 L 315.589844 249.46875 C 315.671875 248.242188 315.671875 246.945312 315.671875 245.648438 C 315.671875 231.039062 311.625 217.421875 304.519531 205.867188 Z M 304.519531 205.867188 L 302.457031 208.089844 C 296.730469 214.210938 290.855469 220.097656 284.96875 225.992188 C 281.226562 229.8125 277.179688 233.484375 273.285156 237.238281 C 278.476562 238.535156 283.671875 239.914062 288.863281 241.441406 C 296.882812 243.734375 304.824219 245.957031 312.761719 248.554688 L 315.589844 249.46875 C 315.671875 248.242188 315.671875 246.945312 315.671875 245.648438 C 315.671875 231.039062 311.625 217.421875 304.519531 205.867188 Z M 308.566406 271.050781 C 300.242188 270.519531 291.992188 269.753906 283.671875 268.988281 C 280.078125 268.6875 276.566406 268.304688 272.980469 267.914062 C 270.6875 267.613281 268.855469 269.90625 269.703125 272.121094 C 271 275.558594 272.21875 279.007812 273.445312 282.527344 C 276.121094 290.332031 278.867188 298.210938 281.382812 306.167969 L 282.222656 308.921875 C 295.503906 299.820312 305.820312 286.664062 311.234375 271.203125 Z M 250.308594 169.988281 L 250.691406 172.972656 C 251.757812 181.234375 252.523438 189.578125 253.285156 197.839844 C 253.589844 201.128906 253.898438 204.34375 254.125 207.632812 C 254.273438 210.160156 257.101562 211.457031 259.164062 210.007812 C 261.761719 208.097656 264.4375 206.183594 267.183594 204.34375 C 274.058594 199.679688 280.851562 195.011719 287.875 190.496094 L 290.472656 188.886719 C 279.554688 178.9375 265.65625 172.128906 250.308594 169.988281 Z M 260.613281 315.652344 C 256.1875 308.613281 252.0625 301.347656 247.933594 294.15625 C 246.101562 291.019531 244.34375 287.882812 242.664062 284.671875 C 241.445312 282.449219 238.304688 282.449219 237.089844 284.671875 C 235.328125 287.960938 233.496094 291.179688 231.59375 294.308594 C 227.394531 301.5 223.191406 308.691406 218.761719 315.730469 L 216.851562 318.789062 C 223.957031 321.011719 231.511719 322.160156 239.300781 322.160156 C 247.320312 322.160156 255.109375 320.933594 262.367188 318.558594 Z M 207.007812 266.847656 C 203.414062 267.308594 199.902344 267.84375 196.320312 268.226562 C 187.996094 269.222656 179.824219 270.214844 171.503906 270.980469 L 167.378906 271.363281 C 172.953125 286.972656 183.488281 300.28125 197.003906 309.3125 L 198.070312 306.09375 C 200.667969 298.140625 203.414062 290.332031 206.242188 282.457031 C 207.542969 278.632812 208.917969 274.882812 210.367188 271.0625 C 211.285156 268.832031 209.371094 266.464844 207.007812 266.847656 Z M 207.007812 266.847656 C 203.414062 267.308594 199.902344 267.84375 196.320312 268.226562 C 187.996094 269.222656 179.824219 270.214844 171.503906 270.980469 L 167.378906 271.363281 C 172.953125 286.972656 183.488281 300.28125 197.003906 309.3125 L 198.070312 306.09375 C 200.667969 298.140625 203.414062 290.332031 206.242188 282.457031 C 207.542969 278.632812 208.917969 274.882812 210.367188 271.0625 C 211.285156 268.832031 209.371094 266.464844 207.007812 266.847656 Z M 260.613281 315.652344 C 256.1875 308.613281 252.0625 301.347656 247.933594 294.15625 C 246.101562 291.019531 244.34375 287.882812 242.664062 284.671875 C 241.445312 282.449219 238.304688 282.449219 237.089844 284.671875 C 235.328125 287.960938 233.496094 291.179688 231.59375 294.308594 C 227.394531 301.5 223.191406 308.691406 218.761719 315.730469 L 216.851562 318.789062 C 223.957031 321.011719 231.511719 322.160156 239.300781 322.160156 C 247.320312 322.160156 255.109375 320.933594 262.367188 318.558594 Z M 250.308594 169.988281 L 250.691406 172.972656 C 251.757812 181.234375 252.523438 189.578125 253.285156 197.839844 C 253.589844 201.128906 253.898438 204.34375 254.125 207.632812 C 254.273438 210.160156 257.101562 211.457031 259.164062 210.007812 C 261.761719 208.097656 264.4375 206.183594 267.183594 204.34375 C 274.058594 199.679688 280.851562 195.011719 287.875 190.496094 L 290.472656 188.886719 C 279.554688 178.9375 265.65625 172.128906 250.308594 169.988281 Z M 308.566406 271.050781 C 300.242188 270.519531 291.992188 269.753906 283.671875 268.988281 C 280.078125 268.6875 276.566406 268.304688 272.980469 267.914062 C 270.6875 267.613281 268.855469 269.90625 269.703125 272.121094 C 271 275.558594 272.21875 279.007812 273.445312 282.527344 C 276.121094 290.332031 278.867188 298.210938 281.382812 306.167969 L 282.222656 308.921875 C 295.503906 299.820312 305.820312 286.664062 311.234375 271.203125 Z M 304.519531 205.867188 L 302.457031 208.089844 C 296.730469 214.210938 290.855469 220.097656 284.96875 225.992188 C 281.226562 229.8125 277.179688 233.484375 273.285156 237.238281 C 278.476562 238.535156 283.671875 239.914062 288.863281 241.441406 C 296.882812 243.734375 304.824219 245.957031 312.761719 248.554688 L 315.589844 249.46875 C 315.671875 248.242188 315.671875 246.945312 315.671875 245.648438 C 315.671875 231.039062 311.625 217.421875 304.519531 205.867188 Z M 304.519531 205.867188 L 302.457031 208.089844 C 296.730469 214.210938 290.855469 220.097656 284.96875 225.992188 C 281.226562 229.8125 277.179688 233.484375 273.285156 237.238281 C 278.476562 238.535156 283.671875 239.914062 288.863281 241.441406 C 296.882812 243.734375 304.824219 245.957031 312.761719 248.554688 L 315.589844 249.46875 C 315.671875 248.242188 315.671875 246.945312 315.671875 245.648438 C 315.671875 231.039062 311.625 217.421875 304.519531 205.867188 Z M 308.566406 271.050781 C 300.242188 270.519531 291.992188 269.753906 283.671875 268.988281 C 280.078125 268.6875 276.566406 268.304688 272.980469 267.914062 C 270.6875 267.613281 268.855469 269.90625 269.703125 272.121094 C 271 275.558594 272.21875 279.007812 273.445312 282.527344 C 276.121094 290.332031 278.867188 298.210938 281.382812 306.167969 L 282.222656 308.921875 C 295.503906 299.820312 305.820312 286.664062 311.234375 271.203125 Z M 250.308594 169.988281 L 250.691406 172.972656 C 251.757812 181.234375 252.523438 189.578125 253.285156 197.839844 C 253.589844 201.128906 253.898438 204.34375 254.125 207.632812 C 254.273438 210.160156 257.101562 211.457031 259.164062 210.007812 C 261.761719 208.097656 264.4375 206.183594 267.183594 204.34375 C 274.058594 199.679688 280.851562 195.011719 287.875 190.496094 L 290.472656 188.886719 C 279.554688 178.9375 265.65625 172.128906 250.308594 169.988281 Z M 260.613281 315.652344 C 256.1875 308.613281 252.0625 301.347656 247.933594 294.15625 C 246.101562 291.019531 244.34375 287.882812 242.664062 284.671875 C 241.445312 282.449219 238.304688 282.449219 237.089844 284.671875 C 235.328125 287.960938 233.496094 291.179688 231.59375 294.308594 C 227.394531 301.5 223.191406 308.691406 218.761719 315.730469 L 216.851562 318.789062 C 223.957031 321.011719 231.511719 322.160156 239.300781 322.160156 C 247.320312 322.160156 255.109375 320.933594 262.367188 318.558594 Z M 207.007812 266.847656 C 203.414062 267.308594 199.902344 267.84375 196.320312 268.226562 C 187.996094 269.222656 179.824219 270.214844 171.503906 270.980469 L 167.378906 271.363281 C 172.953125 286.972656 183.488281 300.28125 197.003906 309.3125 L 198.070312 306.09375 C 200.667969 298.140625 203.414062 290.332031 206.242188 282.457031 C 207.542969 278.632812 208.917969 274.882812 210.367188 271.0625 C 211.285156 268.832031 209.371094 266.464844 207.007812 266.847656 Z M 202.730469 231.957031 C 200.132812 229.582031 197.617188 227.210938 195.09375 224.683594 C 189.136719 218.792969 183.257812 212.976562 177.453125 206.933594 L 175.007812 204.410156 C 167.371094 216.265625 162.941406 230.417969 162.941406 245.648438 C 162.941406 247.105469 163.023438 248.472656 163.023438 249.851562 L 166.613281 248.625 C 174.480469 245.796875 182.421875 243.34375 190.28125 240.75 C 194.027344 239.523438 197.769531 238.457031 201.503906 237.308594 C 203.878906 236.625 204.5625 233.636719 202.730469 231.957031 Z M 207.007812 266.847656 C 203.414062 267.308594 199.902344 267.84375 196.320312 268.226562 C 187.996094 269.222656 179.824219 270.214844 171.503906 270.980469 L 167.378906 271.363281 C 172.953125 286.972656 183.488281 300.28125 197.003906 309.3125 L 198.070312 306.09375 C 200.667969 298.140625 203.414062 290.332031 206.242188 282.457031 C 207.542969 278.632812 208.917969 274.882812 210.367188 271.0625 C 211.285156 268.832031 209.371094 266.464844 207.007812 266.847656 Z M 260.613281 315.652344 C 256.1875 308.613281 252.0625 301.347656 247.933594 294.15625 C 246.101562 291.019531 244.34375 287.882812 242.664062 284.671875 C 241.445312 282.449219 238.304688 282.449219 237.089844 284.671875 C 235.328125 287.960938 233.496094 291.179688 231.59375 294.308594 C 227.394531 301.5 223.191406 308.691406 218.761719 315.730469 L 216.851562 318.789062 C 223.957031 321.011719 231.511719 322.160156 239.300781 322.160156 C 247.320312 322.160156 255.109375 320.933594 262.367188 318.558594 Z M 250.308594 169.988281 L 250.691406 172.972656 C 251.757812 181.234375 252.523438 189.578125 253.285156 197.839844 C 253.589844 201.128906 253.898438 204.34375 254.125 207.632812 C 254.273438 210.160156 257.101562 211.457031 259.164062 210.007812 C 261.761719 208.097656 264.4375 206.183594 267.183594 204.34375 C 274.058594 199.679688 280.851562 195.011719 287.875 190.496094 L 290.472656 188.886719 C 279.554688 178.9375 265.65625 172.128906 250.308594 169.988281 Z M 308.566406 271.050781 C 300.242188 270.519531 291.992188 269.753906 283.671875 268.988281 C 280.078125 268.6875 276.566406 268.304688 272.980469 267.914062 C 270.6875 267.613281 268.855469 269.90625 269.703125 272.121094 C 271 275.558594 272.21875 279.007812 273.445312 282.527344 C 276.121094 290.332031 278.867188 298.210938 281.382812 306.167969 L 282.222656 308.921875 C 295.503906 299.820312 305.820312 286.664062 311.234375 271.203125 Z M 304.519531 205.867188 L 302.457031 208.089844 C 296.730469 214.210938 290.855469 220.097656 284.96875 225.992188 C 281.226562 229.8125 277.179688 233.484375 273.285156 237.238281 C 278.476562 238.535156 283.671875 239.914062 288.863281 241.441406 C 296.882812 243.734375 304.824219 245.957031 312.761719 248.554688 L 315.589844 249.46875 C 315.671875 248.242188 315.671875 246.945312 315.671875 245.648438 C 315.671875 231.039062 311.625 217.421875 304.519531 205.867188 Z M 304.519531 205.867188 L 302.457031 208.089844 C 296.730469 214.210938 290.855469 220.097656 284.96875 225.992188 C 281.226562 229.8125 277.179688 233.484375 273.285156 237.238281 C 278.476562 238.535156 283.671875 239.914062 288.863281 241.441406 C 296.882812 243.734375 304.824219 245.957031 312.761719 248.554688 L 315.589844 249.46875 C 315.671875 248.242188 315.671875 246.945312 315.671875 245.648438 C 315.671875 231.039062 311.625 217.421875 304.519531 205.867188 Z M 283.671875 268.988281 C 280.078125 268.6875 276.566406 268.304688 272.980469 267.914062 C 270.6875 267.613281 268.855469 269.90625 269.703125 272.121094 C 271 275.558594 272.21875 279.007812 273.445312 282.527344 C 276.121094 290.332031 278.867188 298.210938 281.382812 306.167969 L 282.222656 308.921875 C 295.503906 299.820312 305.820312 286.664062 311.234375 271.203125 L 308.558594 271.050781 C 300.242188 270.519531 292 269.753906 283.671875 268.988281 Z M 290.472656 188.886719 C 279.554688 178.9375 265.65625 172.128906 250.308594 169.988281 L 250.691406 172.972656 C 251.757812 181.234375 252.523438 189.578125 253.285156 197.839844 C 253.589844 201.128906 253.898438 204.34375 254.125 207.632812 C 254.273438 210.160156 257.101562 211.457031 259.164062 210.007812 C 261.761719 208.097656 264.4375 206.183594 267.183594 204.34375 C 274.058594 199.679688 280.851562 195.011719 287.875 190.496094 Z M 247.933594 294.15625 C 246.101562 291.019531 244.34375 287.882812 242.664062 284.671875 C 241.445312 282.449219 238.304688 282.449219 237.089844 284.671875 C 235.328125 287.960938 233.496094 291.179688 231.59375 294.308594 C 227.394531 301.5 223.191406 308.691406 218.761719 315.730469 L 216.851562 318.789062 C 223.957031 321.011719 231.511719 322.160156 239.300781 322.160156 C 247.320312 322.160156 255.109375 320.933594 262.367188 318.558594 L 260.605469 315.652344 C 256.1875 308.621094 252.0625 301.347656 247.933594 294.15625 Z M 207.007812 266.847656 C 203.414062 267.308594 199.902344 267.84375 196.320312 268.226562 C 187.996094 269.222656 179.824219 270.214844 171.503906 270.980469 L 167.378906 271.363281 C 172.953125 286.972656 183.488281 300.28125 197.003906 309.3125 L 198.070312 306.09375 C 200.667969 298.140625 203.414062 290.332031 206.242188 282.457031 C 207.542969 278.632812 208.917969 274.882812 210.367188 271.0625 C 211.285156 268.832031 209.371094 266.464844 207.007812 266.847656 Z M 201.511719 237.308594 C 203.878906 236.625 204.570312 233.636719 202.730469 231.957031 C 200.132812 229.582031 197.617188 227.210938 195.09375 224.683594 C 189.136719 218.792969 183.257812 212.976562 177.453125 206.933594 L 175.007812 204.410156 C 167.371094 216.265625 162.941406 230.417969 162.941406 245.648438 C 162.941406 247.105469 163.023438 248.472656 163.023438 249.851562 L 166.613281 248.625 C 174.480469 245.796875 182.421875 243.34375 190.28125 240.75 C 194.027344 239.53125 197.769531 238.464844 201.511719 237.308594 Z M 405.242188 272.277344 L 376.070312 143.898438 C 374.773438 138.164062 370.957031 133.417969 365.683594 130.8125 L 247.632812 73.742188 C 242.359375 71.136719 236.25 71.136719 230.988281 73.742188 L 112.933594 130.8125 C 107.664062 133.417969 103.847656 138.15625 102.550781 143.898438 L 73.378906 272.277344 C 72.078125 278.011719 73.457031 283.988281 77.039062 288.503906 L 158.746094 391.476562 C 162.410156 396.066406 167.984375 398.75 173.789062 398.75 L 304.824219 398.75 C 310.628906 398.75 316.203125 396.074219 319.867188 391.476562 L 401.570312 288.503906 C 405.164062 283.976562 406.539062 278.011719 405.242188 272.277344 Z M 364.464844 277.632812 C 362.171875 278.164062 359.886719 277.632812 358.054688 276.484375 C 354.3125 273.960938 350.347656 272.582031 346.371094 271.433594 C 344.390625 270.902344 342.324219 270.4375 340.34375 270.136719 C 338.359375 269.523438 336.066406 270.136719 333.773438 271.203125 C 331.480469 272.503906 329.417969 272.277344 327.28125 272.121094 L 327.050781 272.121094 C 320.480469 293.925781 306.050781 312.363281 286.960938 324.070312 L 286.960938 324.148438 C 287.574219 326.140625 288.257812 328.050781 287.644531 330.65625 C 287.109375 333.179688 287.03125 335.472656 288.105469 337.3125 C 288.941406 339.152344 289.867188 341.066406 290.855469 342.824219 C 292.917969 346.417969 295.210938 350.015625 298.5625 353.003906 C 301.925781 356.140625 302.15625 361.34375 299.097656 364.78125 C 295.96875 368.152344 290.773438 368.375 287.332031 365.316406 C 285.574219 363.707031 284.65625 361.566406 284.65625 359.351562 C 284.507812 354.835938 283.359375 350.863281 281.980469 346.878906 C 281.296875 344.96875 280.53125 343.054688 279.617188 341.144531 C 278.929688 339.152344 277.101562 337.777344 274.878906 336.476562 C 272.742188 335.332031 271.667969 333.722656 270.601562 331.960938 C 260.828125 335.5625 250.292969 337.472656 239.292969 337.472656 C 228.453125 337.472656 218.070312 335.5625 208.441406 332.121094 C 207.523438 333.800781 206.457031 335.332031 204.316406 336.484375 C 202.101562 337.710938 200.269531 339.160156 199.585938 341.152344 C 198.667969 342.992188 197.824219 344.902344 197.140625 346.816406 C 195.761719 350.796875 194.542969 354.773438 194.464844 359.289062 C 194.3125 363.875 190.417969 367.472656 185.839844 367.324219 C 181.257812 367.171875 177.667969 363.347656 177.820312 358.753906 C 177.898438 356.378906 178.964844 354.316406 180.566406 352.859375 C 183.925781 349.800781 186.222656 346.28125 188.355469 342.761719 C 189.351562 340.921875 190.265625 339.089844 191.101562 337.179688 C 192.171875 335.417969 192.097656 333.046875 191.636719 330.519531 C 191.101562 328.148438 191.636719 326.234375 192.25 324.476562 C 173.082031 312.921875 158.417969 294.5625 151.703125 272.757812 C 149.945312 272.910156 148.273438 272.910156 146.28125 271.914062 C 143.914062 270.917969 141.703125 270.304688 139.710938 270.996094 C 137.648438 271.378906 135.664062 271.914062 133.679688 272.527344 C 129.707031 273.824219 125.8125 275.28125 122.148438 277.878906 C 118.40625 280.554688 113.214844 279.636719 110.546875 275.886719 C 107.949219 272.136719 108.785156 266.933594 112.527344 264.332031 C 114.441406 262.953125 116.804688 262.492188 118.941406 262.875 C 123.296875 263.789062 127.492188 263.488281 131.617188 262.953125 C 133.679688 262.722656 135.746094 262.339844 137.726562 261.804688 C 139.789062 261.65625 141.621094 260.125 143.300781 258.214844 C 144.75 256.535156 146.433594 255.839844 148.113281 255.226562 C 147.808594 252.089844 147.652344 248.878906 147.652344 245.664062 C 147.652344 226.078125 153.757812 207.945312 164.222656 193.027344 C 162.847656 191.648438 161.546875 190.273438 161.015625 187.828125 C 160.328125 185.382812 159.414062 183.238281 157.652344 182.09375 C 156.054688 180.714844 154.445312 179.488281 152.765625 178.34375 C 149.25 176.046875 145.660156 173.90625 141.382812 172.609375 C 136.953125 171.382812 134.359375 166.714844 135.65625 162.359375 C 136.953125 157.921875 141.535156 155.398438 145.960938 156.625 C 148.175781 157.308594 150.007812 158.847656 151.003906 160.757812 C 153.066406 164.738281 155.894531 167.871094 158.871094 170.777344 C 160.320312 172.234375 161.929688 173.601562 163.53125 174.828125 C 164.980469 176.359375 167.273438 176.820312 169.792969 176.972656 C 172.46875 177.050781 174.140625 178.199219 175.898438 179.34375 L 175.980469 179.425781 C 190.339844 165.503906 209.269531 156.320312 230.269531 154.332031 C 230.5 152.265625 230.652344 150.195312 232.253906 148.132812 C 233.78125 146.070312 234.851562 144 234.621094 141.9375 C 234.699219 139.875 234.621094 137.804688 234.46875 135.664062 C 234.007812 131.527344 233.402344 127.394531 231.640625 123.269531 C 229.808594 119.066406 231.792969 114.167969 235.996094 112.328125 C 240.195312 110.566406 245.085938 112.480469 246.914062 116.691406 C 247.832031 118.914062 247.753906 121.277344 246.914062 123.269531 C 245.15625 127.402344 244.550781 131.527344 244.089844 135.664062 C 243.9375 137.804688 243.859375 139.867188 243.9375 141.9375 C 243.707031 144 244.773438 146.070312 246.300781 148.132812 C 247.902344 150.195312 248.0625 152.265625 248.285156 154.332031 C 269.820312 156.394531 289.214844 165.957031 303.722656 180.492188 C 305.484375 179.34375 307.15625 178.117188 309.832031 178.046875 C 312.347656 177.894531 314.644531 177.433594 316.09375 175.90625 C 317.691406 174.605469 319.222656 173.230469 320.75 171.773438 C 323.648438 168.863281 326.476562 165.726562 328.539062 161.753906 C 330.601562 157.621094 335.644531 156.019531 339.691406 158.160156 C 343.816406 160.222656 345.417969 165.273438 343.28125 169.335938 C 342.214844 171.476562 340.382812 172.933594 338.242188 173.539062 C 333.964844 174.765625 330.371094 176.980469 326.9375 179.273438 C 325.257812 180.5 323.578125 181.71875 322.050781 183.097656 C 320.289062 184.242188 319.375 186.386719 318.6875 188.832031 C 318.15625 191.433594 316.707031 192.882812 315.257812 194.414062 C 325.179688 209.027344 330.914062 226.699219 330.914062 245.671875 C 330.914062 248.578125 330.761719 251.484375 330.53125 254.320312 L 330.609375 254.320312 C 332.59375 254.933594 334.585938 255.46875 336.335938 257.53125 C 338.097656 259.371094 339.929688 260.738281 341.992188 260.898438 C 344.054688 261.359375 346.039062 261.664062 348.101562 261.894531 C 352.296875 262.277344 356.421875 262.425781 360.851562 261.433594 C 365.359375 260.4375 369.785156 263.273438 370.773438 267.78125 C 371.792969 272.199219 368.964844 276.636719 364.464844 277.632812 Z M 302.457031 208.089844 C 296.730469 214.210938 290.855469 220.097656 284.96875 225.992188 C 281.226562 229.8125 277.179688 233.484375 273.285156 237.238281 C 278.476562 238.535156 283.671875 239.914062 288.863281 241.441406 C 296.882812 243.734375 304.824219 245.957031 312.761719 248.554688 L 315.589844 249.46875 C 315.671875 248.242188 315.671875 246.945312 315.671875 245.648438 C 315.671875 231.03125 311.625 217.414062 304.519531 205.867188 Z M 283.671875 268.988281 C 280.078125 268.6875 276.566406 268.304688 272.980469 267.914062 C 270.6875 267.613281 268.855469 269.90625 269.703125 272.121094 C 271 275.558594 272.21875 279.007812 273.445312 282.527344 C 276.121094 290.332031 278.867188 298.210938 281.382812 306.167969 L 282.222656 308.921875 C 295.503906 299.820312 305.820312 286.664062 311.234375 271.203125 L 308.558594 271.050781 C 300.242188 270.519531 292 269.753906 283.671875 268.988281 Z M 290.472656 188.886719 C 279.554688 178.9375 265.65625 172.128906 250.308594 169.988281 L 250.691406 172.972656 C 251.757812 181.234375 252.523438 189.578125 253.285156 197.839844 C 253.589844 201.128906 253.898438 204.34375 254.125 207.632812 C 254.273438 210.160156 257.101562 211.457031 259.164062 210.007812 C 261.761719 208.097656 264.4375 206.183594 267.183594 204.34375 C 274.058594 199.679688 280.851562 195.011719 287.875 190.496094 Z M 247.933594 294.15625 C 246.101562 291.019531 244.34375 287.882812 242.664062 284.671875 C 241.445312 282.449219 238.304688 282.449219 237.089844 284.671875 C 235.328125 287.960938 233.496094 291.179688 231.59375 294.308594 C 227.394531 301.5 223.191406 308.691406 218.761719 315.730469 L 216.851562 318.789062 C 223.957031 321.011719 231.511719 322.160156 239.300781 322.160156 C 247.320312 322.160156 255.109375 320.933594 262.367188 318.558594 L 260.605469 315.652344 C 256.1875 308.621094 252.0625 301.347656 247.933594 294.15625 Z M 225.332031 197.839844 C 226.097656 189.570312 226.863281 181.234375 227.929688 172.972656 L 228.3125 169.988281 C 213.578125 172.050781 200.214844 178.40625 189.519531 187.738281 L 191.882812 189.195312 C 198.988281 193.632812 205.859375 198.300781 212.734375 202.96875 C 216.707031 205.492188 220.441406 208.320312 224.1875 211.003906 C 224.496094 206.628906 224.878906 202.195312 225.332031 197.839844 Z M 207.007812 266.847656 C 203.414062 267.308594 199.902344 267.84375 196.320312 268.226562 C 187.996094 269.222656 179.824219 270.214844 171.503906 270.980469 L 167.378906 271.363281 C 172.953125 286.972656 183.488281 300.28125 197.003906 309.3125 L 198.070312 306.09375 C 200.667969 298.140625 203.414062 290.332031 206.242188 282.457031 C 207.542969 278.632812 208.917969 274.882812 210.367188 271.0625 C 211.285156 268.832031 209.371094 266.464844 207.007812 266.847656 Z M 201.511719 237.308594 C 203.878906 236.625 204.570312 233.636719 202.730469 231.957031 C 200.132812 229.582031 197.617188 227.210938 195.09375 224.683594 C 189.136719 218.792969 183.257812 212.976562 177.453125 206.933594 L 175.007812 204.410156 C 167.371094 216.265625 162.941406 230.417969 162.941406 245.648438 C 162.941406 247.105469 163.023438 248.472656 163.023438 249.851562 L 166.613281 248.625 C 174.480469 245.796875 182.421875 243.34375 190.28125 240.75 C 194.027344 239.53125 197.769531 238.464844 201.511719 237.308594 Z M 202.730469 231.957031 C 200.132812 229.582031 197.617188 227.210938 195.09375 224.683594 C 189.136719 218.792969 183.257812 212.976562 177.453125 206.933594 L 175.007812 204.410156 C 167.371094 216.265625 162.941406 230.417969 162.941406 245.648438 C 162.941406 247.105469 163.023438 248.472656 163.023438 249.851562 L 166.613281 248.625 C 174.480469 245.796875 182.421875 243.34375 190.28125 240.75 C 194.027344 239.523438 197.769531 238.457031 201.503906 237.308594 C 203.878906 236.625 204.5625 233.636719 202.730469 231.957031 Z M 207.007812 266.847656 C 203.414062 267.308594 199.902344 267.84375 196.320312 268.226562 C 187.996094 269.222656 179.824219 270.214844 171.503906 270.980469 L 167.378906 271.363281 C 172.953125 286.972656 183.488281 300.28125 197.003906 309.3125 L 198.070312 306.09375 C 200.667969 298.140625 203.414062 290.332031 206.242188 282.457031 C 207.542969 278.632812 208.917969 274.882812 210.367188 271.0625 C 211.285156 268.832031 209.371094 266.464844 207.007812 266.847656 Z M 260.613281 315.652344 C 256.1875 308.613281 252.0625 301.347656 247.933594 294.15625 C 246.101562 291.019531 244.34375 287.882812 242.664062 284.671875 C 241.445312 282.449219 238.304688 282.449219 237.089844 284.671875 C 235.328125 287.960938 233.496094 291.179688 231.59375 294.308594 C 227.394531 301.5 223.191406 308.691406 218.761719 315.730469 L 216.851562 318.789062 C 223.957031 321.011719 231.511719 322.160156 239.300781 322.160156 C 247.320312 322.160156 255.109375 320.933594 262.367188 318.558594 Z M 250.308594 169.988281 L 250.691406 172.972656 C 251.757812 181.234375 252.523438 189.578125 253.285156 197.839844 C 253.589844 201.128906 253.898438 204.34375 254.125 207.632812 C 254.273438 210.160156 257.101562 211.457031 259.164062 210.007812 C 261.761719 208.097656 264.4375 206.183594 267.183594 204.34375 C 274.058594 199.679688 280.851562 195.011719 287.875 190.496094 L 290.472656 188.886719 C 279.554688 178.9375 265.65625 172.128906 250.308594 169.988281 Z M 308.566406 271.050781 C 300.242188 270.519531 291.992188 269.753906 283.671875 268.988281 C 280.078125 268.6875 276.566406 268.304688 272.980469 267.914062 C 270.6875 267.613281 268.855469 269.90625 269.703125 272.121094 C 271 275.558594 272.21875 279.007812 273.445312 282.527344 C 276.121094 290.332031 278.867188 298.210938 281.382812 306.167969 L 282.222656 308.921875 C 295.503906 299.820312 305.820312 286.664062 311.234375 271.203125 Z M 304.519531 205.867188 L 302.457031 208.089844 C 296.730469 214.210938 290.855469 220.097656 284.96875 225.992188 C 281.226562 229.8125 277.179688 233.484375 273.285156 237.238281 C 278.476562 238.535156 283.671875 239.914062 288.863281 241.441406 C 296.882812 243.734375 304.824219 245.957031 312.761719 248.554688 L 315.589844 249.46875 C 315.671875 248.242188 315.671875 246.945312 315.671875 245.648438 C 315.671875 231.039062 311.625 217.421875 304.519531 205.867188 Z M 304.519531 205.867188 L 302.457031 208.089844 C 296.730469 214.210938 290.855469 220.097656 284.96875 225.992188 C 281.226562 229.8125 277.179688 233.484375 273.285156 237.238281 C 278.476562 238.535156 283.671875 239.914062 288.863281 241.441406 C 296.882812 243.734375 304.824219 245.957031 312.761719 248.554688 L 315.589844 249.46875 C 315.671875 248.242188 315.671875 246.945312 315.671875 245.648438 C 315.671875 231.039062 311.625 217.421875 304.519531 205.867188 Z M 308.566406 271.050781 C 300.242188 270.519531 291.992188 269.753906 283.671875 268.988281 C 280.078125 268.6875 276.566406 268.304688 272.980469 267.914062 C 270.6875 267.613281 268.855469 269.90625 269.703125 272.121094 C 271 275.558594 272.21875 279.007812 273.445312 282.527344 C 276.121094 290.332031 278.867188 298.210938 281.382812 306.167969 L 282.222656 308.921875 C 295.503906 299.820312 305.820312 286.664062 311.234375 271.203125 Z M 250.308594 169.988281 L 250.691406 172.972656 C 251.757812 181.234375 252.523438 189.578125 253.285156 197.839844 C 253.589844 201.128906 253.898438 204.34375 254.125 207.632812 C 254.273438 210.160156 257.101562 211.457031 259.164062 210.007812 C 261.761719 208.097656 264.4375 206.183594 267.183594 204.34375 C 274.058594 199.679688 280.851562 195.011719 287.875 190.496094 L 290.472656 188.886719 C 279.554688 178.9375 265.65625 172.128906 250.308594 169.988281 Z M 260.613281 315.652344 C 256.1875 308.613281 252.0625 301.347656 247.933594 294.15625 C 246.101562 291.019531 244.34375 287.882812 242.664062 284.671875 C 241.445312 282.449219 238.304688 282.449219 237.089844 284.671875 C 235.328125 287.960938 233.496094 291.179688 231.59375 294.308594 C 227.394531 301.5 223.191406 308.691406 218.761719 315.730469 L 216.851562 318.789062 C 223.957031 321.011719 231.511719 322.160156 239.300781 322.160156 C 247.320312 322.160156 255.109375 320.933594 262.367188 318.558594 Z M 207.007812 266.847656 C 203.414062 267.308594 199.902344 267.84375 196.320312 268.226562 C 187.996094 269.222656 179.824219 270.214844 171.503906 270.980469 L 167.378906 271.363281 C 172.953125 286.972656 183.488281 300.28125 197.003906 309.3125 L 198.070312 306.09375 C 200.667969 298.140625 203.414062 290.332031 206.242188 282.457031 C 207.542969 278.632812 208.917969 274.882812 210.367188 271.0625 C 211.285156 268.832031 209.371094 266.464844 207.007812 266.847656 Z M 202.730469 231.957031 C 200.132812 229.582031 197.617188 227.210938 195.09375 224.683594 C 189.136719 218.792969 183.257812 212.976562 177.453125 206.933594 L 175.007812 204.410156 C 167.371094 216.265625 162.941406 230.417969 162.941406 245.648438 C 162.941406 247.105469 163.023438 248.472656 163.023438 249.851562 L 166.613281 248.625 C 174.480469 245.796875 182.421875 243.34375 190.28125 240.75 C 194.027344 239.523438 197.769531 238.457031 201.503906 237.308594 C 203.878906 236.625 204.5625 233.636719 202.730469 231.957031 Z M 207.007812 266.847656 C 203.414062 267.308594 199.902344 267.84375 196.320312 268.226562 C 187.996094 269.222656 179.824219 270.214844 171.503906 270.980469 L 167.378906 271.363281 C 172.953125 286.972656 183.488281 300.28125 197.003906 309.3125 L 198.070312 306.09375 C 200.667969 298.140625 203.414062 290.332031 206.242188 282.457031 C 207.542969 278.632812 208.917969 274.882812 210.367188 271.0625 C 211.285156 268.832031 209.371094 266.464844 207.007812 266.847656 Z M 260.613281 315.652344 C 256.1875 308.613281 252.0625 301.347656 247.933594 294.15625 C 246.101562 291.019531 244.34375 287.882812 242.664062 284.671875 C 241.445312 282.449219 238.304688 282.449219 237.089844 284.671875 C 235.328125 287.960938 233.496094 291.179688 231.59375 294.308594 C 227.394531 301.5 223.191406 308.691406 218.761719 315.730469 L 216.851562 318.789062 C 223.957031 321.011719 231.511719 322.160156 239.300781 322.160156 C 247.320312 322.160156 255.109375 320.933594 262.367188 318.558594 Z M 250.308594 169.988281 L 250.691406 172.972656 C 251.757812 181.234375 252.523438 189.578125 253.285156 197.839844 C 253.589844 201.128906 253.898438 204.34375 254.125 207.632812 C 254.273438 210.160156 257.101562 211.457031 259.164062 210.007812 C 261.761719 208.097656 264.4375 206.183594 267.183594 204.34375 C 274.058594 199.679688 280.851562 195.011719 287.875 190.496094 L 290.472656 188.886719 C 279.554688 178.9375 265.65625 172.128906 250.308594 169.988281 Z M 308.566406 271.050781 C 300.242188 270.519531 291.992188 269.753906 283.671875 268.988281 C 280.078125 268.6875 276.566406 268.304688 272.980469 267.914062 C 270.6875 267.613281 268.855469 269.90625 269.703125 272.121094 C 271 275.558594 272.21875 279.007812 273.445312 282.527344 C 276.121094 290.332031 278.867188 298.210938 281.382812 306.167969 L 282.222656 308.921875 C 295.503906 299.820312 305.820312 286.664062 311.234375 271.203125 Z M 304.519531 205.867188 L 302.457031 208.089844 C 296.730469 214.210938 290.855469 220.097656 284.96875 225.992188 C 281.226562 229.8125 277.179688 233.484375 273.285156 237.238281 C 278.476562 238.535156 283.671875 239.914062 288.863281 241.441406 C 296.882812 243.734375 304.824219 245.957031 312.761719 248.554688 L 315.589844 249.46875 C 315.671875 248.242188 315.671875 246.945312 315.671875 245.648438 C 315.671875 231.039062 311.625 217.421875 304.519531 205.867188 Z M 304.519531 205.867188 L 302.457031 208.089844 C 296.730469 214.210938 290.855469 220.097656 284.96875 225.992188 C 281.226562 229.8125 277.179688 233.484375 273.285156 237.238281 C 278.476562 238.535156 283.671875 239.914062 288.863281 241.441406 C 296.882812 243.734375 304.824219 245.957031 312.761719 248.554688 L 315.589844 249.46875 C 315.671875 248.242188 315.671875 246.945312 315.671875 245.648438 C 315.671875 231.039062 311.625 217.421875 304.519531 205.867188 Z M 308.566406 271.050781 C 300.242188 270.519531 291.992188 269.753906 283.671875 268.988281 C 280.078125 268.6875 276.566406 268.304688 272.980469 267.914062 C 270.6875 267.613281 268.855469 269.90625 269.703125 272.121094 C 271 275.558594 272.21875 279.007812 273.445312 282.527344 C 276.121094 290.332031 278.867188 298.210938 281.382812 306.167969 L 282.222656 308.921875 C 295.503906 299.820312 305.820312 286.664062 311.234375 271.203125 Z M 250.308594 169.988281 L 250.691406 172.972656 C 251.757812 181.234375 252.523438 189.578125 253.285156 197.839844 C 253.589844 201.128906 253.898438 204.34375 254.125 207.632812 C 254.273438 210.160156 257.101562 211.457031 259.164062 210.007812 C 261.761719 208.097656 264.4375 206.183594 267.183594 204.34375 C 274.058594 199.679688 280.851562 195.011719 287.875 190.496094 L 290.472656 188.886719 C 279.554688 178.9375 265.65625 172.128906 250.308594 169.988281 Z M 260.613281 315.652344 C 256.1875 308.613281 252.0625 301.347656 247.933594 294.15625 C 246.101562 291.019531 244.34375 287.882812 242.664062 284.671875 C 241.445312 282.449219 238.304688 282.449219 237.089844 284.671875 C 235.328125 287.960938 233.496094 291.179688 231.59375 294.308594 C 227.394531 301.5 223.191406 308.691406 218.761719 315.730469 L 216.851562 318.789062 C 223.957031 321.011719 231.511719 322.160156 239.300781 322.160156 C 247.320312 322.160156 255.109375 320.933594 262.367188 318.558594 Z M 207.007812 266.847656 C 203.414062 267.308594 199.902344 267.84375 196.320312 268.226562 C 187.996094 269.222656 179.824219 270.214844 171.503906 270.980469 L 167.378906 271.363281 C 172.953125 286.972656 183.488281 300.28125 197.003906 309.3125 L 198.070312 306.09375 C 200.667969 298.140625 203.414062 290.332031 206.242188 282.457031 C 207.542969 278.632812 208.917969 274.882812 210.367188 271.0625 C 211.285156 268.832031 209.371094 266.464844 207.007812 266.847656 Z M 260.613281 315.652344 C 256.1875 308.613281 252.0625 301.347656 247.933594 294.15625 C 246.101562 291.019531 244.34375 287.882812 242.664062 284.671875 C 241.445312 282.449219 238.304688 282.449219 237.089844 284.671875 C 235.328125 287.960938 233.496094 291.179688 231.59375 294.308594 C 227.394531 301.5 223.191406 308.691406 218.761719 315.730469 L 216.851562 318.789062 C 223.957031 321.011719 231.511719 322.160156 239.300781 322.160156 C 247.320312 322.160156 255.109375 320.933594 262.367188 318.558594 Z M 250.308594 169.988281 L 250.691406 172.972656 C 251.757812 181.234375 252.523438 189.578125 253.285156 197.839844 C 253.589844 201.128906 253.898438 204.34375 254.125 207.632812 C 254.273438 210.160156 257.101562 211.457031 259.164062 210.007812 C 261.761719 208.097656 264.4375 206.183594 267.183594 204.34375 C 274.058594 199.679688 280.851562 195.011719 287.875 190.496094 L 290.472656 188.886719 C 279.554688 178.9375 265.65625 172.128906 250.308594 169.988281 Z M 308.566406 271.050781 C 300.242188 270.519531 291.992188 269.753906 283.671875 268.988281 C 280.078125 268.6875 276.566406 268.304688 272.980469 267.914062 C 270.6875 267.613281 268.855469 269.90625 269.703125 272.121094 C 271 275.558594 272.21875 279.007812 273.445312 282.527344 C 276.121094 290.332031 278.867188 298.210938 281.382812 306.167969 L 282.222656 308.921875 C 295.503906 299.820312 305.820312 286.664062 311.234375 271.203125 Z M 304.519531 205.867188 L 302.457031 208.089844 C 296.730469 214.210938 290.855469 220.097656 284.96875 225.992188 C 281.226562 229.8125 277.179688 233.484375 273.285156 237.238281 C 278.476562 238.535156 283.671875 239.914062 288.863281 241.441406 C 296.882812 243.734375 304.824219 245.957031 312.761719 248.554688 L 315.589844 249.46875 C 315.671875 248.242188 315.671875 246.945312 315.671875 245.648438 C 315.671875 231.039062 311.625 217.421875 304.519531 205.867188 Z M 304.519531 205.867188 L 302.457031 208.089844 C 296.730469 214.210938 290.855469 220.097656 284.96875 225.992188 C 281.226562 229.8125 277.179688 233.484375 273.285156 237.238281 C 278.476562 238.535156 283.671875 239.914062 288.863281 241.441406 C 296.882812 243.734375 304.824219 245.957031 312.761719 248.554688 L 315.589844 249.46875 C 315.671875 248.242188 315.671875 246.945312 315.671875 245.648438 C 315.671875 231.039062 311.625 217.421875 304.519531 205.867188 Z M 308.566406 271.050781 C 300.242188 270.519531 291.992188 269.753906 283.671875 268.988281 C 280.078125 268.6875 276.566406 268.304688 272.980469 267.914062 C 270.6875 267.613281 268.855469 269.90625 269.703125 272.121094 C 271 275.558594 272.21875 279.007812 273.445312 282.527344 C 276.121094 290.332031 278.867188 298.210938 281.382812 306.167969 L 282.222656 308.921875 C 295.503906 299.820312 305.820312 286.664062 311.234375 271.203125 Z M 250.308594 169.988281 L 250.691406 172.972656 C 251.757812 181.234375 252.523438 189.578125 253.285156 197.839844 C 253.589844 201.128906 253.898438 204.34375 254.125 207.632812 C 254.273438 210.160156 257.101562 211.457031 259.164062 210.007812 C 261.761719 208.097656 264.4375 206.183594 267.183594 204.34375 C 274.058594 199.679688 280.851562 195.011719 287.875 190.496094 L 290.472656 188.886719 C 279.554688 178.9375 265.65625 172.128906 250.308594 169.988281 Z M 260.613281 315.652344 C 256.1875 308.613281 252.0625 301.347656 247.933594 294.15625 C 246.101562 291.019531 244.34375 287.882812 242.664062 284.671875 C 241.445312 282.449219 238.304688 282.449219 237.089844 284.671875 C 235.328125 287.960938 233.496094 291.179688 231.59375 294.308594 C 227.394531 301.5 223.191406 308.691406 218.761719 315.730469 L 216.851562 318.789062 C 223.957031 321.011719 231.511719 322.160156 239.300781 322.160156 C 247.320312 322.160156 255.109375 320.933594 262.367188 318.558594 Z M 260.613281 315.652344 C 256.1875 308.613281 252.0625 301.347656 247.933594 294.15625 C 246.101562 291.019531 244.34375 287.882812 242.664062 284.671875 C 241.445312 282.449219 238.304688 282.449219 237.089844 284.671875 C 235.328125 287.960938 233.496094 291.179688 231.59375 294.308594 C 227.394531 301.5 223.191406 308.691406 218.761719 315.730469 L 216.851562 318.789062 C 223.957031 321.011719 231.511719 322.160156 239.300781 322.160156 C 247.320312 322.160156 255.109375 320.933594 262.367188 318.558594 Z M 250.308594 169.988281 L 250.691406 172.972656 C 251.757812 181.234375 252.523438 189.578125 253.285156 197.839844 C 253.589844 201.128906 253.898438 204.34375 254.125 207.632812 C 254.273438 210.160156 257.101562 211.457031 259.164062 210.007812 C 261.761719 208.097656 264.4375 206.183594 267.183594 204.34375 C 274.058594 199.679688 280.851562 195.011719 287.875 190.496094 L 290.472656 188.886719 C 279.554688 178.9375 265.65625 172.128906 250.308594 169.988281 Z M 308.566406 271.050781 C 300.242188 270.519531 291.992188 269.753906 283.671875 268.988281 C 280.078125 268.6875 276.566406 268.304688 272.980469 267.914062 C 270.6875 267.613281 268.855469 269.90625 269.703125 272.121094 C 271 275.558594 272.21875 279.007812 273.445312 282.527344 C 276.121094 290.332031 278.867188 298.210938 281.382812 306.167969 L 282.222656 308.921875 C 295.503906 299.820312 305.820312 286.664062 311.234375 271.203125 Z M 304.519531 205.867188 L 302.457031 208.089844 C 296.730469 214.210938 290.855469 220.097656 284.96875 225.992188 C 281.226562 229.8125 277.179688 233.484375 273.285156 237.238281 C 278.476562 238.535156 283.671875 239.914062 288.863281 241.441406 C 296.882812 243.734375 304.824219 245.957031 312.761719 248.554688 L 315.589844 249.46875 C 315.671875 248.242188 315.671875 246.945312 315.671875 245.648438 C 315.671875 231.039062 311.625 217.421875 304.519531 205.867188 Z M 304.519531 205.867188 L 302.457031 208.089844 C 296.730469 214.210938 290.855469 220.097656 284.96875 225.992188 C 281.226562 229.8125 277.179688 233.484375 273.285156 237.238281 C 278.476562 238.535156 283.671875 239.914062 288.863281 241.441406 C 296.882812 243.734375 304.824219 245.957031 312.761719 248.554688 L 315.589844 249.46875 C 315.671875 248.242188 315.671875 246.945312 315.671875 245.648438 C 315.671875 231.039062 311.625 217.421875 304.519531 205.867188 Z M 308.566406 271.050781 C 300.242188 270.519531 291.992188 269.753906 283.671875 268.988281 C 280.078125 268.6875 276.566406 268.304688 272.980469 267.914062 C 270.6875 267.613281 268.855469 269.90625 269.703125 272.121094 C 271 275.558594 272.21875 279.007812 273.445312 282.527344 C 276.121094 290.332031 278.867188 298.210938 281.382812 306.167969 L 282.222656 308.921875 C 295.503906 299.820312 305.820312 286.664062 311.234375 271.203125 Z M 250.308594 169.988281 L 250.691406 172.972656 C 251.757812 181.234375 252.523438 189.578125 253.285156 197.839844 C 253.589844 201.128906 253.898438 204.34375 254.125 207.632812 C 254.273438 210.160156 257.101562 211.457031 259.164062 210.007812 C 261.761719 208.097656 264.4375 206.183594 267.183594 204.34375 C 274.058594 199.679688 280.851562 195.011719 287.875 190.496094 L 290.472656 188.886719 C 279.554688 178.9375 265.65625 172.128906 250.308594 169.988281 Z M 260.613281 315.652344 C 256.1875 308.613281 252.0625 301.347656 247.933594 294.15625 C 246.101562 291.019531 244.34375 287.882812 242.664062 284.671875 C 241.445312 282.449219 238.304688 282.449219 237.089844 284.671875 C 235.328125 287.960938 233.496094 291.179688 231.59375 294.308594 C 227.394531 301.5 223.191406 308.691406 218.761719 315.730469 L 216.851562 318.789062 C 223.957031 321.011719 231.511719 322.160156 239.300781 322.160156 C 247.320312 322.160156 255.109375 320.933594 262.367188 318.558594 Z M 250.308594 169.988281 L 250.691406 172.972656 C 251.757812 181.234375 252.523438 189.578125 253.285156 197.839844 C 253.589844 201.128906 253.898438 204.34375 254.125 207.632812 C 254.273438 210.160156 257.101562 211.457031 259.164062 210.007812 C 261.761719 208.097656 264.4375 206.183594 267.183594 204.34375 C 274.058594 199.679688 280.851562 195.011719 287.875 190.496094 L 290.472656 188.886719 C 279.554688 178.9375 265.65625 172.128906 250.308594 169.988281 Z M 308.566406 271.050781 C 300.242188 270.519531 291.992188 269.753906 283.671875 268.988281 C 280.078125 268.6875 276.566406 268.304688 272.980469 267.914062 C 270.6875 267.613281 268.855469 269.90625 269.703125 272.121094 C 271 275.558594 272.21875 279.007812 273.445312 282.527344 C 276.121094 290.332031 278.867188 298.210938 281.382812 306.167969 L 282.222656 308.921875 C 295.503906 299.820312 305.820312 286.664062 311.234375 271.203125 Z M 304.519531 205.867188 L 302.457031 208.089844 C 296.730469 214.210938 290.855469 220.097656 284.96875 225.992188 C 281.226562 229.8125 277.179688 233.484375 273.285156 237.238281 C 278.476562 238.535156 283.671875 239.914062 288.863281 241.441406 C 296.882812 243.734375 304.824219 245.957031 312.761719 248.554688 L 315.589844 249.46875 C 315.671875 248.242188 315.671875 246.945312 315.671875 245.648438 C 315.671875 231.039062 311.625 217.421875 304.519531 205.867188 Z M 304.519531 205.867188 L 302.457031 208.089844 C 296.730469 214.210938 290.855469 220.097656 284.96875 225.992188 C 281.226562 229.8125 277.179688 233.484375 273.285156 237.238281 C 278.476562 238.535156 283.671875 239.914062 288.863281 241.441406 C 296.882812 243.734375 304.824219 245.957031 312.761719 248.554688 L 315.589844 249.46875 C 315.671875 248.242188 315.671875 246.945312 315.671875 245.648438 C 315.671875 231.039062 311.625 217.421875 304.519531 205.867188 Z M 308.566406 271.050781 C 300.242188 270.519531 291.992188 269.753906 283.671875 268.988281 C 280.078125 268.6875 276.566406 268.304688 272.980469 267.914062 C 270.6875 267.613281 268.855469 269.90625 269.703125 272.121094 C 271 275.558594 272.21875 279.007812 273.445312 282.527344 C 276.121094 290.332031 278.867188 298.210938 281.382812 306.167969 L 282.222656 308.921875 C 295.503906 299.820312 305.820312 286.664062 311.234375 271.203125 Z M 250.308594 169.988281 L 250.691406 172.972656 C 251.757812 181.234375 252.523438 189.578125 253.285156 197.839844 C 253.589844 201.128906 253.898438 204.34375 254.125 207.632812 C 254.273438 210.160156 257.101562 211.457031 259.164062 210.007812 C 261.761719 208.097656 264.4375 206.183594 267.183594 204.34375 C 274.058594 199.679688 280.851562 195.011719 287.875 190.496094 L 290.472656 188.886719 C 279.554688 178.9375 265.65625 172.128906 250.308594 169.988281 Z M 250.308594 169.988281 L 250.691406 172.972656 C 251.757812 181.234375 252.523438 189.578125 253.285156 197.839844 C 253.589844 201.128906 253.898438 204.34375 254.125 207.632812 C 254.273438 210.160156 257.101562 211.457031 259.164062 210.007812 C 261.761719 208.097656 264.4375 206.183594 267.183594 204.34375 C 274.058594 199.679688 280.851562 195.011719 287.875 190.496094 L 290.472656 188.886719 C 279.554688 178.9375 265.65625 172.128906 250.308594 169.988281 Z M 304.519531 205.867188 L 302.457031 208.089844 C 296.730469 214.210938 290.855469 220.097656 284.96875 225.992188 C 281.226562 229.8125 277.179688 233.484375 273.285156 237.238281 C 278.476562 238.535156 283.671875 239.914062 288.863281 241.441406 C 296.882812 243.734375 304.824219 245.957031 312.761719 248.554688 L 315.589844 249.46875 C 315.671875 248.242188 315.671875 246.945312 315.671875 245.648438 C 315.671875 231.039062 311.625 217.421875 304.519531 205.867188 Z M 304.519531 205.867188 L 302.457031 208.089844 C 296.730469 214.210938 290.855469 220.097656 284.96875 225.992188 C 281.226562 229.8125 277.179688 233.484375 273.285156 237.238281 C 278.476562 238.535156 283.671875 239.914062 288.863281 241.441406 C 296.882812 243.734375 304.824219 245.957031 312.761719 248.554688 L 315.589844 249.46875 C 315.671875 248.242188 315.671875 246.945312 315.671875 245.648438 C 315.671875 231.039062 311.625 217.421875 304.519531 205.867188 Z M 250.308594 169.988281 L 250.691406 172.972656 C 251.757812 181.234375 252.523438 189.578125 253.285156 197.839844 C 253.589844 201.128906 253.898438 204.34375 254.125 207.632812 C 254.273438 210.160156 257.101562 211.457031 259.164062 210.007812 C 261.761719 208.097656 264.4375 206.183594 267.183594 204.34375 C 274.058594 199.679688 280.851562 195.011719 287.875 190.496094 L 290.472656 188.886719 C 279.554688 178.9375 265.65625 172.128906 250.308594 169.988281 Z M 250.308594 169.988281 L 250.691406 172.972656 C 251.757812 181.234375 252.523438 189.578125 253.285156 197.839844 C 253.589844 201.128906 253.898438 204.34375 254.125 207.632812 C 254.273438 210.160156 257.101562 211.457031 259.164062 210.007812 C 261.761719 208.097656 264.4375 206.183594 267.183594 204.34375 C 274.058594 199.679688 280.851562 195.011719 287.875 190.496094 L 290.472656 188.886719 C 279.554688 178.9375 265.65625 172.128906 250.308594 169.988281 Z M 304.519531 205.867188 L 302.457031 208.089844 C 296.730469 214.210938 290.855469 220.097656 284.96875 225.992188 C 281.226562 229.8125 277.179688 233.484375 273.285156 237.238281 C 278.476562 238.535156 283.671875 239.914062 288.863281 241.441406 C 296.882812 243.734375 304.824219 245.957031 312.761719 248.554688 L 315.589844 249.46875 C 315.671875 248.242188 315.671875 246.945312 315.671875 245.648438 C 315.671875 231.039062 311.625 217.421875 304.519531 205.867188 Z M 304.519531 205.867188 L 302.457031 208.089844 C 296.730469 214.210938 290.855469 220.097656 284.96875 225.992188 C 281.226562 229.8125 277.179688 233.484375 273.285156 237.238281 C 278.476562 238.535156 283.671875 239.914062 288.863281 241.441406 C 296.882812 243.734375 304.824219 245.957031 312.761719 248.554688 L 315.589844 249.46875 C 315.671875 248.242188 315.671875 246.945312 315.671875 245.648438 C 315.671875 231.039062 311.625 217.421875 304.519531 205.867188 Z M 250.308594 169.988281 L 250.691406 172.972656 C 251.757812 181.234375 252.523438 189.578125 253.285156 197.839844 C 253.589844 201.128906 253.898438 204.34375 254.125 207.632812 C 254.273438 210.160156 257.101562 211.457031 259.164062 210.007812 C 261.761719 208.097656 264.4375 206.183594 267.183594 204.34375 C 274.058594 199.679688 280.851562 195.011719 287.875 190.496094 L 290.472656 188.886719 C 279.554688 178.9375 265.65625 172.128906 250.308594 169.988281 Z M 250.308594 169.988281 L 250.691406 172.972656 C 251.757812 181.234375 252.523438 189.578125 253.285156 197.839844 C 253.589844 201.128906 253.898438 204.34375 254.125 207.632812 C 254.273438 210.160156 257.101562 211.457031 259.164062 210.007812 C 261.761719 208.097656 264.4375 206.183594 267.183594 204.34375 C 274.058594 199.679688 280.851562 195.011719 287.875 190.496094 L 290.472656 188.886719 C 279.554688 178.9375 265.65625 172.128906 250.308594 169.988281 Z M 250.308594 169.988281 L 250.691406 172.972656 C 251.757812 181.234375 252.523438 189.578125 253.285156 197.839844 C 253.589844 201.128906 253.898438 204.34375 254.125 207.632812 C 254.273438 210.160156 257.101562 211.457031 259.164062 210.007812 C 261.761719 208.097656 264.4375 206.183594 267.183594 204.34375 C 274.058594 199.679688 280.851562 195.011719 287.875 190.496094 L 290.472656 188.886719 C 279.554688 178.9375 265.65625 172.128906 250.308594 169.988281 Z M 250.308594 169.988281 "/>
</g>
</svg>
